<svg xmlns="http://www.w3.org/2000/svg" fill="#BD3B3B" viewBox="0 0 100 100"><path d="M87.066 36.037l-2.706 4.021c.959.646 1.532 1.741 1.532 2.93 0 1.929-1.489 3.499-3.318 3.499-1.833 0-3.324-1.569-3.324-3.499 0-1.189.573-2.284 1.532-2.931l-2.707-4.02c-2.299 1.548-3.672 4.146-3.672 6.951 0 3.739 2.42 6.912 5.744 7.97v7.1c0 1.292-.988 2.343-2.202 2.343H64.331c-2.443-4.486-7.203-7.548-12.645-7.548h-2.121c-5.441 0-10.202 3.062-12.645 7.548H22.055c-1.214 0-2.202-1.051-2.202-2.343v-7.1c3.324-1.058 5.744-4.231 5.744-7.97 0-2.805-1.373-5.403-3.672-6.951l-2.706 4.021c.959.645 1.532 1.741 1.532 2.93 0 1.929-1.491 3.499-3.324 3.499-1.829 0-3.318-1.569-3.318-3.499 0-1.189.573-2.284 1.532-2.93l-2.706-4.021c-2.3 1.548-3.673 4.147-3.673 6.951 0 3.74 2.42 6.914 5.744 7.971v7.099c0 3.964 3.162 7.189 7.049 7.189h13.28a14.222 14.222 0 0 0-.155 1.991V77.69h13.058v4.107a7.671 7.671 0 0 1 2.388-.383c.834 0 1.635.137 2.388.383V77.69h13.058V67.238c0-.677-.064-1.338-.155-1.991h12.03c3.886 0 7.049-3.225 7.049-7.189v-7.099c3.324-1.057 5.744-4.23 5.744-7.971-.001-2.804-1.374-5.403-3.674-6.951zM54.465 66.238l-7.095 6.848a1.989 1.989 0 0 1-2.818-.05 1.994 1.994 0 0 1 .05-2.819l3.544-3.421h-2.381a1.992 1.992 0 0 1-1.489-3.318l6.063-6.816a1.992 1.992 0 1 1 2.978 2.65l-3.112 3.498h2.876a1.993 1.993 0 0 1 1.384 3.428z"/><path d="M36.593 38.55h28.065a.923.923 0 0 0 .911-.911v-3.443a.923.923 0 0 0-.911-.911H36.593a.923.923 0 0 0-.911.911v3.443a.922.922 0 0 0 .911.911zM51.628 5h-2.006v3.471h2.006zM55.943 14.791h3.47v-2.006h-3.47zM45.308 12.785h-3.47v2.006h3.47zM56.13 6.864l1.42 1.419-2.455 2.454-1.42-1.42zM45.12 6.864l2.455 2.455-1.42 1.419-2.454-2.455z"/><path d="M70.545 23.252H55.161v-3.77h-3.168v-2.949a3.068 3.068 0 0 0 1.712-2.745 3.079 3.079 0 1 0-6.158 0c0 1.207.701 2.241 1.712 2.745v2.949H46.09v3.77H30.705a2.617 2.617 0 0 0-2.609 2.609V48.77a2.617 2.617 0 0 0 2.609 2.609h39.84a2.617 2.617 0 0 0 2.609-2.609V25.862a2.616 2.616 0 0 0-2.609-2.61zm-1.33 14.387a4.562 4.562 0 0 1-4.557 4.557H36.593a4.562 4.562 0 0 1-4.557-4.557v-3.443a4.562 4.562 0 0 1 4.557-4.557h28.065a4.562 4.562 0 0 1 4.557 4.557v3.443zM44.744 89.118a5.882 5.882 0 1 0 11.764 0 5.882 5.882 0 0 0-11.764 0zm7.608 0a1.726 1.726 0 1 1-3.453 0 1.726 1.726 0 0 1 3.453 0z"/></svg>