<svg xmlns="http://www.w3.org/2000/svg" xmlns:xlink="http://www.w3.org/1999/xlink" version="1.1" fill="#BD3B3B" x="0px" y="0px" viewBox="0 0 100 100" enable-background="new 0 0 100 100" xml:space="preserve"><g display="none"><rect x="-27.879" y="-45.155" display="inline" fill="" width="1286.936" height="912.422"></rect></g><g><g><path d="M87.066,36.037l-2.706,4.021c0.959,0.646,1.532,1.741,1.532,2.93c0,1.929-1.489,3.499-3.318,3.499    c-1.833,0-3.324-1.569-3.324-3.499c0-1.189,0.573-2.284,1.532-2.931l-2.707-4.02c-2.299,1.548-3.672,4.146-3.672,6.951    c0,3.739,2.42,6.912,5.744,7.97v7.1c0,1.292-0.988,2.343-2.202,2.343H64.331c-2.443-4.486-7.203-7.548-12.645-7.548h-2.121    c-5.441,0-10.202,3.062-12.645,7.548H22.055c-1.214,0-2.202-1.051-2.202-2.343v-7.1c3.324-1.058,5.744-4.231,5.744-7.97    c0-2.805-1.373-5.403-3.672-6.951l-2.706,4.021c0.959,0.645,1.532,1.741,1.532,2.93c0,1.929-1.491,3.499-3.324,3.499    c-1.829,0-3.318-1.569-3.318-3.499c0-1.189,0.573-2.284,1.532-2.93l-2.706-4.021c-2.3,1.548-3.673,4.147-3.673,6.951    c0,3.74,2.42,6.914,5.744,7.971v7.099c0,3.964,3.162,7.189,7.049,7.189h13.28c-0.092,0.653-0.155,1.314-0.155,1.991V77.69h13.058    v4.107c0.753-0.246,1.554-0.383,2.388-0.383c0.834,0,1.635,0.137,2.388,0.383V77.69h13.058V67.238    c0-0.677-0.064-1.338-0.155-1.991h12.03c3.886,0,7.049-3.225,7.049-7.189v-7.099c3.324-1.057,5.744-4.23,5.744-7.971    C90.739,40.184,89.366,37.585,87.066,36.037z M54.465,66.238l-7.095,6.848c-0.387,0.373-0.886,0.559-1.384,0.559    c-0.522,0-1.043-0.204-1.434-0.609c-0.764-0.792-0.742-2.054,0.05-2.819l3.544-3.421h-2.381c-0.785,0-1.497-0.461-1.818-1.177    c-0.322-0.716-0.193-1.555,0.329-2.141l6.063-6.816c0.732-0.823,1.992-0.896,2.814-0.164c0.823,0.731,0.896,1.992,0.164,2.814    l-3.112,3.498h2.876c0.813,0,1.544,0.494,1.848,1.247C55.233,64.811,55.049,65.673,54.465,66.238z"></path><path d="M36.593,38.55h28.065c0.494,0,0.911-0.417,0.911-0.911v-3.443c0-0.494-0.417-0.911-0.911-0.911H36.593    c-0.494,0-0.911,0.417-0.911,0.911v3.443C35.681,38.133,36.099,38.55,36.593,38.55z"></path><polygon points="51.628,5 50.625,5 49.622,5 49.622,8.471 51.628,8.471   "></polygon><polygon points="55.943,14.791 59.413,14.791 59.413,13.788 59.413,12.785 55.943,12.785   "></polygon><polygon points="45.308,12.785 41.838,12.785 41.838,13.788 41.838,14.791 45.308,14.791   "></polygon><rect x="54.609" y="7.065" transform="matrix(0.7071 0.7071 -0.7071 0.7071 22.5117 -36.7461)" width="2.007" height="3.471"></rect><rect x="43.903" y="7.798" transform="matrix(0.7071 0.7071 -0.7071 0.7071 19.5905 -29.6936)" width="3.471" height="2.007"></rect><path d="M70.545,23.252H55.161v-3.77h-3.168v-2.949c1.011-0.505,1.712-1.538,1.712-2.745c0-1.7-1.378-3.079-3.079-3.079    s-3.079,1.378-3.079,3.079c0,1.207,0.701,2.241,1.712,2.745v2.949H46.09v3.77H30.705c-1.435,0-2.609,1.174-2.609,2.609V48.77    c0,1.435,1.174,2.609,2.609,2.609h39.84c1.435,0,2.609-1.174,2.609-2.609V25.862C73.155,24.426,71.981,23.252,70.545,23.252z     M69.215,37.639c0,2.513-2.044,4.557-4.557,4.557H36.593c-2.513,0-4.557-2.044-4.557-4.557v-3.443    c0-2.513,2.044-4.557,4.557-4.557h28.065c2.513,0,4.557,2.044,4.557,4.557V37.639z"></path><path d="M44.744,89.118c0,3.248,2.633,5.882,5.882,5.882c3.248,0,5.882-2.633,5.882-5.882s-2.633-5.882-5.882-5.882    C47.377,83.236,44.744,85.87,44.744,89.118z M52.352,89.118c0,0.953-0.773,1.726-1.726,1.726c-0.954,0-1.726-0.773-1.726-1.726    s0.773-1.726,1.726-1.726C51.579,87.392,52.352,88.165,52.352,89.118z"></path></g></g></svg>