<svg fill="#24CE00" xmlns="http://www.w3.org/2000/svg" xmlns:xlink="http://www.w3.org/1999/xlink" version="1.1" x="0px" y="0px" viewBox="0 0 60 60" enable-background="new 0 0 60 60" xml:space="preserve"><path d="M30,40c-5.5,0-10-4.5-10-10s4.5-10,10-10s10,4.5,10,10S35.5,40,30,40z M30,22c-4.4,0-8,3.6-8,8s3.6,8,8,8s8-3.6,8-8  S34.4,22,30,22z"></path><path d="M29,34c-0.3,0-0.5-0.1-0.7-0.3l-3-3c-0.4-0.4-0.4-1,0-1.4s1-0.4,1.4,0l2.2,2.2l4.3-5.2c0.4-0.4,1-0.5,1.4-0.1  c0.4,0.4,0.5,1,0.1,1.4l-5,6C29.6,33.9,29.3,34,29,34C29,34,29,34,29,34z"></path></svg>