<svg fill="#E64747" xmlns="http://www.w3.org/2000/svg" xmlns:xlink="http://www.w3.org/1999/xlink" version="1.1" x="0px" y="0px" viewBox="0 0 100 100" enable-background="new 0 0 100 100" xml:space="preserve"><path d="M52,26c-12.131,0-22,9.869-22,22s9.869,22,22,22s22-9.869,22-22S64.131,26,52,26z M52,66c-9.926,0-18-8.075-18-18  s8.074-18,18-18s18,8.075,18,18S61.926,66,52,66z M61.414,38.586c-0.781-0.781-2.047-0.781-2.828,0L52,45.172l-6.586-6.586  c-0.781-0.781-2.047-0.781-2.828,0s-0.781,2.047,0,2.828L49.172,48l-6.586,6.586c-0.781,0.781-0.781,2.047,0,2.828  C42.977,57.805,43.488,58,44,58s1.023-0.195,1.414-0.586L52,50.828l6.586,6.586C58.977,57.805,59.488,58,60,58  s1.023-0.195,1.414-0.586c0.781-0.781,0.781-2.047,0-2.828L54.828,48l6.586-6.586C62.195,40.633,62.195,39.367,61.414,38.586z"></path></svg>