<svg class="lds-flask" width="200" height="200" xmlns="http://www.w3.org/2000/svg" viewBox="0 0 100 100" preserveAspectRatio="xMidYMid" style="background:0 0"><defs><clipPath id="b"><path d="M0 55h100v45H0z"/></clipPath><pattern id="a" patternUnits="userSpaceOnUse" width="100" height="100"><path fill="#25AAE1" d="M0 0h100v100H0z"/><circle cx="64" r="3" fill="#DD4D21" transform="translate(0 64.743)"><animateTransform attributeName="transform" type="translate" values="0 116;0 -16" keyTimes="0;1" dur="3s" begin="-2.73s" repeatCount="indefinite"/></circle><circle cx="95" r="2" fill="#DD4D21" transform="translate(0 -1.21)"><animateTransform attributeName="transform" type="translate" values="0 142;0 -42" keyTimes="0;1" dur="3s" begin="-0.9s" repeatCount="indefinite"/></circle><circle cx="82" r="2" fill="#DD4D21" transform="translate(0 62.062)"><animateTransform attributeName="transform" type="translate" values="0 104;0 -4" keyTimes="0;1" dur="3s" begin="-2.73s" repeatCount="indefinite"/></circle><circle cx="56" r="2" fill="#DD4D21" transform="translate(0 106.983)"><animateTransform attributeName="transform" type="translate" values="0 116;0 -16" keyTimes="0;1" dur="3s" begin="-1.77s" repeatCount="indefinite"/></circle><circle cx="8" r="3" fill="#DD4D21" transform="translate(0 92.12)"><animateTransform attributeName="transform" type="translate" values="0 145;0 -45" keyTimes="0;1" dur="3s" begin="-2.4s" repeatCount="indefinite"/></circle><circle cx="64" r="3" fill="#DD4D21" transform="translate(0 91.57)"><animateTransform attributeName="transform" type="translate" values="0 136;0 -36" keyTimes="0;1" dur="3s" begin="-2.34s" repeatCount="indefinite"/></circle><circle cx="32" r="3" fill="#DD4D21" transform="translate(0 16.253)"><animateTransform attributeName="transform" type="translate" values="0 131;0 -31" keyTimes="0;1" dur="3s" begin="-0.69s" repeatCount="indefinite"/></circle><circle cx="35" r="3" fill="#DD4D21" transform="translate(0 10.026)"><animateTransform attributeName="transform" type="translate" values="0 117;0 -17" keyTimes="0;1" dur="3s" begin="-0.96s" repeatCount="indefinite"/></circle><circle cx="79" r="2" fill="#DD4D21" transform="translate(0 25.303)"><animateTransform attributeName="transform" type="translate" values="0 128;0 -28" keyTimes="0;1" dur="3s" begin="-0.54s" repeatCount="indefinite"/></circle><circle cx="37" r="3" fill="#DD4D21" transform="translate(0 -18.747)"><animateTransform attributeName="transform" type="translate" values="0 125;0 -25" keyTimes="0;1" dur="3s" begin="-1.44s" repeatCount="indefinite"/></circle><circle cx="26" r="3" fill="#DD4D21" transform="translate(0 -10.856)"><animateTransform attributeName="transform" type="translate" values="0 152;0 -52" keyTimes="0;1" dur="3s" begin="-0.96s" repeatCount="indefinite"/></circle><circle cx="33" r="3" fill="#DD4D21" transform="translate(0 125.717)"><animateTransform attributeName="transform" type="translate" values="0 132;0 -32" keyTimes="0;1" dur="3s" begin="-1.68s" repeatCount="indefinite"/></circle><circle cx="84" r="3" fill="#DD4D21" transform="translate(0 78.753)"><animateTransform attributeName="transform" type="translate" values="0 125;0 -25" keyTimes="0;1" dur="3s" begin="-2.49s" repeatCount="indefinite"/></circle><circle cx="58" r="2" fill="#DD4D21" transform="translate(0 44.299)"><animateTransform attributeName="transform" type="translate" values="0 109;0 -9" keyTimes="0;1" dur="3s" begin="-0.21s" repeatCount="indefinite"/></circle><circle cx="58" r="2" fill="#DD4D21" transform="translate(0 -13.35)"><animateTransform attributeName="transform" type="translate" values="0 136;0 -36" keyTimes="0;1" dur="3s" begin="-1.17s" repeatCount="indefinite"/></circle><circle cx="96" r="2" fill="#DD4D21" transform="translate(0 27.456)"><animateTransform attributeName="transform" type="translate" values="0 126;0 -26" keyTimes="0;1" dur="3s" begin="-0.51s" repeatCount="indefinite"/></circle><circle cx="90" r="3" fill="#DD4D21" transform="translate(0 69.27)"><animateTransform attributeName="transform" type="translate" values="0 118;0 -18" keyTimes="0;1" dur="3s" begin="-2.64s" repeatCount="indefinite"/></circle><circle cx="63" r="3" fill="#DD4D21" transform="translate(0 33.402)"><animateTransform attributeName="transform" type="translate" values="0 110;0 -10" keyTimes="0;1" dur="3s" begin="-0.48s" repeatCount="indefinite"/></circle><circle cx="96" r="3" fill="#DD4D21" transform="translate(0 30.636)"><animateTransform attributeName="transform" type="translate" values="0 120;0 -20" keyTimes="0;1" dur="3s" begin="-0.48s" repeatCount="indefinite"/></circle><circle cx="40" r="2" fill="#DD4D21" transform="translate(0 49.002)"><animateTransform attributeName="transform" type="translate" values="0 110;0 -10" keyTimes="0;1" dur="3s" begin="-0.09s" repeatCount="indefinite"/></circle><circle cx="38" r="3" fill="#DD4D21" transform="translate(0 1.574)"><animateTransform attributeName="transform" type="translate" values="0 137;0 -37" keyTimes="0;1" dur="3s" begin="-0.9s" repeatCount="indefinite"/></circle><circle cx="51" r="3" fill="#DD4D21" transform="translate(0 37.652)"><animateTransform attributeName="transform" type="translate" values="0 107;0 -7" keyTimes="0;1" dur="3s" begin="-0.39s" repeatCount="indefinite"/></circle><circle cx="90" r="3" fill="#DD4D21" transform="translate(0 -29.4)"><animateTransform attributeName="transform" type="translate" values="0 133;0 -33" keyTimes="0;1" dur="3s" begin="-1.5s" repeatCount="indefinite"/></circle><circle cx="77" r="3" fill="#DD4D21" transform="translate(0 57.96)"><animateTransform attributeName="transform" type="translate" values="0 127;0 -27" keyTimes="0;1" dur="3s" begin="-2.91s" repeatCount="indefinite"/></circle><circle cx="30" r="2" fill="#DD4D21" transform="translate(0 1.582)"><animateTransform attributeName="transform" type="translate" values="0 104;0 -4" keyTimes="0;1" dur="3s" begin="-1.41s" repeatCount="indefinite"/></circle><circle cx="8" r="3" fill="#DD4D21" transform="translate(0 57.03)"><animateTransform attributeName="transform" type="translate" values="0 118;0 -18" keyTimes="0;1" dur="3s" begin="-2.91s" repeatCount="indefinite"/></circle><circle cx="52" r="3" fill="#DD4D21" transform="translate(0 100.919)"><animateTransform attributeName="transform" type="translate" values="0 115;0 -15" keyTimes="0;1" dur="3s" begin="-1.89s" repeatCount="indefinite"/></circle><circle cx="68" r="3" fill="#DD4D21" transform="translate(0 50.246)"><animateTransform attributeName="transform" type="translate" values="0 123;0 -23" keyTimes="0;1" dur="3s" begin="-0.06s" repeatCount="indefinite"/></circle><circle cx="24" r="2" fill="#DD4D21" transform="translate(0 -43.683)"><animateTransform attributeName="transform" type="translate" values="0 144;0 -44" keyTimes="0;1" dur="3s" begin="-1.56s" repeatCount="indefinite"/></circle><circle cx="6" r="2" fill="#DD4D21" transform="translate(0 -12.534)"><animateTransform attributeName="transform" type="translate" values="0 123;0 -23" keyTimes="0;1" dur="3s" begin="-1.35s" repeatCount="indefinite"/></circle><circle cx="91" r="2" fill="#DD4D21" transform="translate(0 107.97)"><animateTransform attributeName="transform" type="translate" values="0 124;0 -24" keyTimes="0;1" dur="3s" begin="-1.89s" repeatCount="indefinite"/></circle><circle cx="31" r="2" fill="#DD4D21" transform="translate(0 37.47)"><animateTransform attributeName="transform" type="translate" values="0 130;0 -30" keyTimes="0;1" dur="3s" begin="-0.3s" repeatCount="indefinite"/></circle><circle cx="62" r="2" fill="#DD4D21" transform="translate(0 -34.33)"><animateTransform attributeName="transform" type="translate" values="0 142;0 -42" keyTimes="0;1" dur="3s" begin="-1.44s" repeatCount="indefinite"/></circle><circle cx="64" r="3" fill="#DD4D21" transform="translate(0 58.504)"><animateTransform attributeName="transform" type="translate" values="0 152;0 -52" keyTimes="0;1" dur="3s" begin="-2.94s" repeatCount="indefinite"/></circle><circle cx="12" r="3" fill="#DD4D21" transform="translate(0 -16.646)"><animateTransform attributeName="transform" type="translate" values="0 143;0 -43" keyTimes="0;1" dur="3s" begin="-1.14s" repeatCount="indefinite"/></circle><circle cx="39" r="2" fill="#DD4D21" transform="translate(0 70.54)"><animateTransform attributeName="transform" type="translate" values="0 151;0 -51" keyTimes="0;1" dur="3s" begin="-2.76s" repeatCount="indefinite"/></circle><circle cx="82" r="3" fill="#DD4D21" transform="translate(0 -7.873)"><animateTransform attributeName="transform" type="translate" values="0 147;0 -47" keyTimes="0;1" dur="3s" begin="-0.96s" repeatCount="indefinite"/></circle><circle cx="97" r="2" fill="#DD4D21" transform="translate(0 -18.343)"><animateTransform attributeName="transform" type="translate" values="0 138;0 -38" keyTimes="0;1" dur="3s" begin="-1.23s" repeatCount="indefinite"/></circle><circle cx="13" r="2" fill="#DD4D21" transform="translate(0 55.789)"><animateTransform attributeName="transform" type="translate" values="0 106;0 -6" keyTimes="0;1" dur="3s" begin="-2.91s" repeatCount="indefinite"/></circle><circle cx="68" r="2" fill="#DD4D21" transform="translate(0 105.753)"><animateTransform attributeName="transform" type="translate" values="0 125;0 -25" keyTimes="0;1" dur="3s" begin="-1.95s" repeatCount="indefinite"/></circle><circle cx="51" r="2" fill="#DD4D21" transform="translate(0 4.136)"><animateTransform attributeName="transform" type="translate" values="0 114;0 -14" keyTimes="0;1" dur="3s" begin="-1.14s" repeatCount="indefinite"/></circle><circle cx="12" r="2" fill="#DD4D21" transform="translate(0 30.937)"><animateTransform attributeName="transform" type="translate" values="0 138;0 -38" keyTimes="0;1" dur="3s" begin="-0.39s" repeatCount="indefinite"/></circle><circle cx="40" r="2" fill="#DD4D21" transform="translate(0 104.16)"><animateTransform attributeName="transform" type="translate" values="0 127;0 -27" keyTimes="0;1" dur="3s" begin="-2.01s" repeatCount="indefinite"/></circle><circle cx="34" r="2" fill="#DD4D21" transform="translate(0 -35.233)"><animateTransform attributeName="transform" type="translate" values="0 141;0 -41" keyTimes="0;1" dur="3s" begin="-1.47s" repeatCount="indefinite"/></circle><circle cx="56" r="3" fill="#DD4D21" transform="translate(0 8.67)"><animateTransform attributeName="transform" type="translate" values="0 130;0 -30" keyTimes="0;1" dur="3s" begin="-0.84s" repeatCount="indefinite"/></circle><circle cx="45" r="2" fill="#DD4D21" transform="translate(0 38.933)"><animateTransform attributeName="transform" type="translate" values="0 131;0 -31" keyTimes="0;1" dur="3s" begin="-0.27s" repeatCount="indefinite"/></circle><circle cx="59" r="2" fill="#DD4D21" transform="translate(0 8.436)"><animateTransform attributeName="transform" type="translate" values="0 108;0 -8" keyTimes="0;1" dur="3s" begin="-1.14s" repeatCount="indefinite"/></circle><circle cx="29" r="3" fill="#DD4D21" transform="translate(0 120.23)"><animateTransform attributeName="transform" type="translate" values="0 142;0 -42" keyTimes="0;1" dur="3s" begin="-1.92s" repeatCount="indefinite"/></circle><circle cx="44" r="3" fill="#DD4D21" transform="translate(0 11.584)"><animateTransform attributeName="transform" type="translate" values="0 152;0 -52" keyTimes="0;1" dur="3s" begin="-0.63s" repeatCount="indefinite"/></circle><circle cx="37" r="3" fill="#DD4D21" transform="translate(0 -11.663)"><animateTransform attributeName="transform" type="translate" values="0 150;0 -50" keyTimes="0;1" dur="3s" begin="-0.99s" repeatCount="indefinite"/></circle></pattern></defs><path fill="url(#a)" clip-path="url(#b)" d="M59 37.3V18.9c3-.8 5.1-3.6 5.1-6.8 0-3.9-3.1-7.1-7-7.1H42.9c-3.9 0-7.1 3.2-7.1 7.1 0 3.2 2.2 6 5.1 6.8v18.4c-11.9 3.8-20.6 15-20.6 28.2C20.4 81.8 33.7 95 50 95s29.6-13.2 29.6-29.6c0-13.2-8.7-24.3-20.6-28.1z"/><path fill="none" stroke="#494949" stroke-width="3" d="M59 37.3V18.9c3-.8 5.1-3.6 5.1-6.8 0-3.9-3.1-7.1-7-7.1H42.9c-3.9 0-7.1 3.2-7.1 7.1 0 3.2 2.2 6 5.1 6.8v18.4c-11.9 3.8-20.6 15-20.6 28.2C20.4 81.8 33.7 95 50 95s29.6-13.2 29.6-29.6c0-13.2-8.7-24.3-20.6-28.1z"/></svg>