<svg class="lds-flask" width="200px"  height="200px"  xmlns="http://www.w3.org/2000/svg" xmlns:xlink="http://www.w3.org/1999/xlink" viewBox="0 0 100 100" preserveAspectRatio="xMidYMid" style="background: none;"><defs>
<clipPath id="lds-flask-cpid-2c3eca122a29c" clipPathUnits="userSpaceOnUse">
<rect x="0" y="55" width="100" height="45"></rect>
</clipPath>
<pattern id="lds-flask-patid-8a44743849b7a" patternUnits="userSpaceOnUse" x="0" y="0" width="100" height="100">
<rect x="0" y="0" width="100" height="100" fill="#25AAE1"></rect><circle cx="64" cy="0" r="3" fill="#DD4D21" transform="translate(0 64.7427)">
<animateTransform attributeName="transform" type="translate" values="0 116;0 -16" keyTimes="0;1" dur="3s" begin="-2.73s" repeatCount="indefinite"></animateTransform>
</circle><circle cx="95" cy="0" r="2" fill="#DD4D21" transform="translate(0 -1.20963)">
<animateTransform attributeName="transform" type="translate" values="0 142;0 -42" keyTimes="0;1" dur="3s" begin="-0.9s" repeatCount="indefinite"></animateTransform>
</circle><circle cx="82" cy="0" r="2" fill="#DD4D21" transform="translate(0 62.0622)">
<animateTransform attributeName="transform" type="translate" values="0 104;0 -4" keyTimes="0;1" dur="3s" begin="-2.73s" repeatCount="indefinite"></animateTransform>
</circle><circle cx="56" cy="0" r="2" fill="#DD4D21" transform="translate(0 106.983)">
<animateTransform attributeName="transform" type="translate" values="0 116;0 -16" keyTimes="0;1" dur="3s" begin="-1.77s" repeatCount="indefinite"></animateTransform>
</circle><circle cx="8" cy="0" r="3" fill="#DD4D21" transform="translate(0 92.1205)">
<animateTransform attributeName="transform" type="translate" values="0 145;0 -45" keyTimes="0;1" dur="3s" begin="-2.4s" repeatCount="indefinite"></animateTransform>
</circle><circle cx="64" cy="0" r="3" fill="#DD4D21" transform="translate(0 91.5701)">
<animateTransform attributeName="transform" type="translate" values="0 136;0 -36" keyTimes="0;1" dur="3s" begin="-2.34s" repeatCount="indefinite"></animateTransform>
</circle><circle cx="32" cy="0" r="3" fill="#DD4D21" transform="translate(0 16.2533)">
<animateTransform attributeName="transform" type="translate" values="0 131;0 -31" keyTimes="0;1" dur="3s" begin="-0.69s" repeatCount="indefinite"></animateTransform>
</circle><circle cx="35" cy="0" r="3" fill="#DD4D21" transform="translate(0 10.026)">
<animateTransform attributeName="transform" type="translate" values="0 117;0 -17" keyTimes="0;1" dur="3s" begin="-0.96s" repeatCount="indefinite"></animateTransform>
</circle><circle cx="79" cy="0" r="2" fill="#DD4D21" transform="translate(0 25.3031)">
<animateTransform attributeName="transform" type="translate" values="0 128;0 -28" keyTimes="0;1" dur="3s" begin="-0.54s" repeatCount="indefinite"></animateTransform>
</circle><circle cx="37" cy="0" r="3" fill="#DD4D21" transform="translate(0 -18.747)">
<animateTransform attributeName="transform" type="translate" values="0 125;0 -25" keyTimes="0;1" dur="3s" begin="-1.44s" repeatCount="indefinite"></animateTransform>
</circle><circle cx="26" cy="0" r="3" fill="#DD4D21" transform="translate(0 -10.8559)">
<animateTransform attributeName="transform" type="translate" values="0 152;0 -52" keyTimes="0;1" dur="3s" begin="-0.96s" repeatCount="indefinite"></animateTransform>
</circle><circle cx="33" cy="0" r="3" fill="#DD4D21" transform="translate(0 125.717)">
<animateTransform attributeName="transform" type="translate" values="0 132;0 -32" keyTimes="0;1" dur="3s" begin="-1.68s" repeatCount="indefinite"></animateTransform>
</circle><circle cx="84" cy="0" r="3" fill="#DD4D21" transform="translate(0 78.753)">
<animateTransform attributeName="transform" type="translate" values="0 125;0 -25" keyTimes="0;1" dur="3s" begin="-2.49s" repeatCount="indefinite"></animateTransform>
</circle><circle cx="58" cy="0" r="2" fill="#DD4D21" transform="translate(0 44.299)">
<animateTransform attributeName="transform" type="translate" values="0 109;0 -9" keyTimes="0;1" dur="3s" begin="-0.21s" repeatCount="indefinite"></animateTransform>
</circle><circle cx="58" cy="0" r="2" fill="#DD4D21" transform="translate(0 -13.3499)">
<animateTransform attributeName="transform" type="translate" values="0 136;0 -36" keyTimes="0;1" dur="3s" begin="-1.17s" repeatCount="indefinite"></animateTransform>
</circle><circle cx="96" cy="0" r="2" fill="#DD4D21" transform="translate(0 27.4564)">
<animateTransform attributeName="transform" type="translate" values="0 126;0 -26" keyTimes="0;1" dur="3s" begin="-0.51s" repeatCount="indefinite"></animateTransform>
</circle><circle cx="90" cy="0" r="3" fill="#DD4D21" transform="translate(0 69.2694)">
<animateTransform attributeName="transform" type="translate" values="0 118;0 -18" keyTimes="0;1" dur="3s" begin="-2.64s" repeatCount="indefinite"></animateTransform>
</circle><circle cx="63" cy="0" r="3" fill="#DD4D21" transform="translate(0 33.4024)">
<animateTransform attributeName="transform" type="translate" values="0 110;0 -10" keyTimes="0;1" dur="3s" begin="-0.48s" repeatCount="indefinite"></animateTransform>
</circle><circle cx="96" cy="0" r="3" fill="#DD4D21" transform="translate(0 30.6362)">
<animateTransform attributeName="transform" type="translate" values="0 120;0 -20" keyTimes="0;1" dur="3s" begin="-0.48s" repeatCount="indefinite"></animateTransform>
</circle><circle cx="40" cy="0" r="2" fill="#DD4D21" transform="translate(0 49.0024)">
<animateTransform attributeName="transform" type="translate" values="0 110;0 -10" keyTimes="0;1" dur="3s" begin="-0.09s" repeatCount="indefinite"></animateTransform>
</circle><circle cx="38" cy="0" r="3" fill="#DD4D21" transform="translate(0 1.57352)">
<animateTransform attributeName="transform" type="translate" values="0 137;0 -37" keyTimes="0;1" dur="3s" begin="-0.9s" repeatCount="indefinite"></animateTransform>
</circle><circle cx="51" cy="0" r="3" fill="#DD4D21" transform="translate(0 37.6523)">
<animateTransform attributeName="transform" type="translate" values="0 107;0 -7" keyTimes="0;1" dur="3s" begin="-0.39s" repeatCount="indefinite"></animateTransform>
</circle><circle cx="90" cy="0" r="3" fill="#DD4D21" transform="translate(0 -29.4)">
<animateTransform attributeName="transform" type="translate" values="0 133;0 -33" keyTimes="0;1" dur="3s" begin="-1.5s" repeatCount="indefinite"></animateTransform>
</circle><circle cx="77" cy="0" r="3" fill="#DD4D21" transform="translate(0 57.9598)">
<animateTransform attributeName="transform" type="translate" values="0 127;0 -27" keyTimes="0;1" dur="3s" begin="-2.91s" repeatCount="indefinite"></animateTransform>
</circle><circle cx="30" cy="0" r="2" fill="#DD4D21" transform="translate(0 1.58218)">
<animateTransform attributeName="transform" type="translate" values="0 104;0 -4" keyTimes="0;1" dur="3s" begin="-1.41s" repeatCount="indefinite"></animateTransform>
</circle><circle cx="8" cy="0" r="3" fill="#DD4D21" transform="translate(0 57.0294)">
<animateTransform attributeName="transform" type="translate" values="0 118;0 -18" keyTimes="0;1" dur="3s" begin="-2.91s" repeatCount="indefinite"></animateTransform>
</circle><circle cx="52" cy="0" r="3" fill="#DD4D21" transform="translate(0 100.919)">
<animateTransform attributeName="transform" type="translate" values="0 115;0 -15" keyTimes="0;1" dur="3s" begin="-1.89s" repeatCount="indefinite"></animateTransform>
</circle><circle cx="68" cy="0" r="3" fill="#DD4D21" transform="translate(0 50.2463)">
<animateTransform attributeName="transform" type="translate" values="0 123;0 -23" keyTimes="0;1" dur="3s" begin="-0.06s" repeatCount="indefinite"></animateTransform>
</circle><circle cx="24" cy="0" r="2" fill="#DD4D21" transform="translate(0 -43.6829)">
<animateTransform attributeName="transform" type="translate" values="0 144;0 -44" keyTimes="0;1" dur="3s" begin="-1.56s" repeatCount="indefinite"></animateTransform>
</circle><circle cx="6" cy="0" r="2" fill="#DD4D21" transform="translate(0 -12.5337)">
<animateTransform attributeName="transform" type="translate" values="0 123;0 -23" keyTimes="0;1" dur="3s" begin="-1.35s" repeatCount="indefinite"></animateTransform>
</circle><circle cx="91" cy="0" r="2" fill="#DD4D21" transform="translate(0 107.97)">
<animateTransform attributeName="transform" type="translate" values="0 124;0 -24" keyTimes="0;1" dur="3s" begin="-1.89s" repeatCount="indefinite"></animateTransform>
</circle><circle cx="31" cy="0" r="2" fill="#DD4D21" transform="translate(0 37.4699)">
<animateTransform attributeName="transform" type="translate" values="0 130;0 -30" keyTimes="0;1" dur="3s" begin="-0.3s" repeatCount="indefinite"></animateTransform>
</circle><circle cx="62" cy="0" r="2" fill="#DD4D21" transform="translate(0 -34.3296)">
<animateTransform attributeName="transform" type="translate" values="0 142;0 -42" keyTimes="0;1" dur="3s" begin="-1.44s" repeatCount="indefinite"></animateTransform>
</circle><circle cx="64" cy="0" r="3" fill="#DD4D21" transform="translate(0 58.5041)">
<animateTransform attributeName="transform" type="translate" values="0 152;0 -52" keyTimes="0;1" dur="3s" begin="-2.94s" repeatCount="indefinite"></animateTransform>
</circle><circle cx="12" cy="0" r="3" fill="#DD4D21" transform="translate(0 -16.6462)">
<animateTransform attributeName="transform" type="translate" values="0 143;0 -43" keyTimes="0;1" dur="3s" begin="-1.14s" repeatCount="indefinite"></animateTransform>
</circle><circle cx="39" cy="0" r="2" fill="#DD4D21" transform="translate(0 70.5407)">
<animateTransform attributeName="transform" type="translate" values="0 151;0 -51" keyTimes="0;1" dur="3s" begin="-2.76s" repeatCount="indefinite"></animateTransform>
</circle><circle cx="82" cy="0" r="3" fill="#DD4D21" transform="translate(0 -7.87274)">
<animateTransform attributeName="transform" type="translate" values="0 147;0 -47" keyTimes="0;1" dur="3s" begin="-0.96s" repeatCount="indefinite"></animateTransform>
</circle><circle cx="97" cy="0" r="2" fill="#DD4D21" transform="translate(0 -18.3431)">
<animateTransform attributeName="transform" type="translate" values="0 138;0 -38" keyTimes="0;1" dur="3s" begin="-1.23s" repeatCount="indefinite"></animateTransform>
</circle><circle cx="13" cy="0" r="2" fill="#DD4D21" transform="translate(0 55.7889)">
<animateTransform attributeName="transform" type="translate" values="0 106;0 -6" keyTimes="0;1" dur="3s" begin="-2.91s" repeatCount="indefinite"></animateTransform>
</circle><circle cx="68" cy="0" r="2" fill="#DD4D21" transform="translate(0 105.753)">
<animateTransform attributeName="transform" type="translate" values="0 125;0 -25" keyTimes="0;1" dur="3s" begin="-1.95s" repeatCount="indefinite"></animateTransform>
</circle><circle cx="51" cy="0" r="2" fill="#DD4D21" transform="translate(0 4.13592)">
<animateTransform attributeName="transform" type="translate" values="0 114;0 -14" keyTimes="0;1" dur="3s" begin="-1.14s" repeatCount="indefinite"></animateTransform>
</circle><circle cx="12" cy="0" r="2" fill="#DD4D21" transform="translate(0 30.9369)">
<animateTransform attributeName="transform" type="translate" values="0 138;0 -38" keyTimes="0;1" dur="3s" begin="-0.39s" repeatCount="indefinite"></animateTransform>
</circle><circle cx="40" cy="0" r="2" fill="#DD4D21" transform="translate(0 104.16)">
<animateTransform attributeName="transform" type="translate" values="0 127;0 -27" keyTimes="0;1" dur="3s" begin="-2.01s" repeatCount="indefinite"></animateTransform>
</circle><circle cx="34" cy="0" r="2" fill="#DD4D21" transform="translate(0 -35.233)">
<animateTransform attributeName="transform" type="translate" values="0 141;0 -41" keyTimes="0;1" dur="3s" begin="-1.47s" repeatCount="indefinite"></animateTransform>
</circle><circle cx="56" cy="0" r="3" fill="#DD4D21" transform="translate(0 8.6699)">
<animateTransform attributeName="transform" type="translate" values="0 130;0 -30" keyTimes="0;1" dur="3s" begin="-0.84s" repeatCount="indefinite"></animateTransform>
</circle><circle cx="45" cy="0" r="2" fill="#DD4D21" transform="translate(0 38.9333)">
<animateTransform attributeName="transform" type="translate" values="0 131;0 -31" keyTimes="0;1" dur="3s" begin="-0.27s" repeatCount="indefinite"></animateTransform>
</circle><circle cx="59" cy="0" r="2" fill="#DD4D21" transform="translate(0 8.43568)">
<animateTransform attributeName="transform" type="translate" values="0 108;0 -8" keyTimes="0;1" dur="3s" begin="-1.14s" repeatCount="indefinite"></animateTransform>
</circle><circle cx="29" cy="0" r="3" fill="#DD4D21" transform="translate(0 120.23)">
<animateTransform attributeName="transform" type="translate" values="0 142;0 -42" keyTimes="0;1" dur="3s" begin="-1.92s" repeatCount="indefinite"></animateTransform>
</circle><circle cx="44" cy="0" r="3" fill="#DD4D21" transform="translate(0 11.5841)">
<animateTransform attributeName="transform" type="translate" values="0 152;0 -52" keyTimes="0;1" dur="3s" begin="-0.63s" repeatCount="indefinite"></animateTransform>
</circle><circle cx="37" cy="0" r="3" fill="#DD4D21" transform="translate(0 -11.6626)">
<animateTransform attributeName="transform" type="translate" values="0 150;0 -50" keyTimes="0;1" dur="3s" begin="-0.99s" repeatCount="indefinite"></animateTransform>
</circle>      </pattern></defs>

      <path fill="url(#lds-flask-patid-8a44743849b7a)" clip-path="url(#lds-flask-cpid-2c3eca122a29c)" d="M59,37.3V18.9c3-0.8,5.1-3.6,5.1-6.8C64.1,8.2,61,5,57.1,5H42.9c-3.9,0-7.1,3.2-7.1,7.1c0,3.2,2.2,6,5.1,6.8v18.4c-11.9,3.8-20.6,15-20.6,28.2C20.4,81.8,33.7,95,50,95s29.6-13.2,29.6-29.6C79.6,52.2,70.9,41.1,59,37.3z"></path>

      <path fill="none" stroke="#494949" stroke-width="3" d="M59,37.3V18.9c3-0.8,5.1-3.6,5.1-6.8C64.1,8.2,61,5,57.1,5H42.9c-3.9,0-7.1,3.2-7.1,7.1c0,3.2,2.2,6,5.1,6.8v18.4c-11.9,3.8-20.6,15-20.6,28.2C20.4,81.8,33.7,95,50,95s29.6-13.2,29.6-29.6C79.6,52.2,70.9,41.1,59,37.3z"></path>
</svg>